<?xml version="1.0" encoding="UTF-8" standalone="no"?>
<svg
   xmlns:dc="http://purl.org/dc/elements/1.1/"
   xmlns:cc="http://creativecommons.org/ns#"
   xmlns:rdf="http://www.w3.org/1999/02/22-rdf-syntax-ns#"
   xmlns:svg="http://www.w3.org/2000/svg"
   xmlns="http://www.w3.org/2000/svg"
   xmlns:sodipodi="http://sodipodi.sourceforge.net/DTD/sodipodi-0.dtd"
   xmlns:inkscape="http://www.inkscape.org/namespaces/inkscape"
   inkscape:version="1.0 (4035a4fb49, 2020-05-01)"
   sodipodi:docname="graph.svg"
   class=""
   height="512px"
   width="512px"
   xml:space="preserve"
   style="enable-background:new 0 0 478 478;"
   viewBox="0 0 478 478"
   y="0px"
   x="0px"
   id="Capa_1"
   version="1.1"><metadata
   id="metadata27"><rdf:RDF><cc:Work
       rdf:about=""><dc:format>image/svg+xml</dc:format><dc:type
         rdf:resource="http://purl.org/dc/dcmitype/StillImage" /></cc:Work></rdf:RDF></metadata><defs
   id="defs25" /><sodipodi:namedview
   inkscape:current-layer="Capa_1"
   inkscape:window-maximized="0"
   inkscape:window-y="42"
   inkscape:window-x="8"
   inkscape:cy="256"
   inkscape:cx="95.173838"
   inkscape:zoom="1.1347656"
   showgrid="false"
   id="namedview23"
   inkscape:window-height="716"
   inkscape:window-width="1348"
   inkscape:pageshadow="2"
   inkscape:pageopacity="0"
   guidetolerance="10"
   gridtolerance="10"
   objecttolerance="10"
   borderopacity="1"
   bordercolor="#666666"
   pagecolor="#ffffff" /><g
   style="fill:#ff5555;fill-opacity:1"
   transform="matrix(-1,0,0,1,478,0)"
   id="g6">
	<g
   style="fill:#ff5555;fill-opacity:1"
   id="g4">
		<path
   style="fill:#ff5555;fill-opacity:1"
   d="M 119.5,187.75 H 17.1 c -9.4,0 -17,7.6 -17.1,17.1 v 256 c 0,9.5 7.7,17.1 17.1,17.1 h 102.4 c 9.5,0 17.1,-7.7 17.1,-17.1 v -256 c 0,-9.5 -7.7,-17.1 -17.1,-17.1 z"
   data-original="#000000"
   class="active-path"
   data-old_color="#000000"
   fill="#000000"
   id="path2" />
	</g>
</g><g
   style="fill:#6272a4;fill-opacity:1"
   transform="matrix(-1,0,0,1,478,0)"
   id="g12">
	<g
   style="fill:#6272a4;fill-opacity:1"
   id="g10">
		<path
   style="fill:#6272a4;fill-opacity:1"
   d="M 290.2,0.05 H 187.8 c -9.4,0 -17.1,7.6 -17.1,17 v 443.8 c 0,9.5 7.7,17.1 17.1,17.1 h 102.4 c 9.5,0 17.1,-7.7 17.1,-17.1 V 17.15 c 0,-9.5 -7.7,-17.1 -17.1,-17.1 z"
   data-original="#000000"
   class="active-path"
   data-old_color="#000000"
   fill="#000000"
   id="path8" />
	</g>
</g><g
   style="fill:#333333"
   transform="matrix(-1,0,0,1,478,0)"
   id="g18">
	<g
   style="fill:#f1fa8c;fill-opacity:1"
   id="g16">
		<path
   style="fill:#f1fa8c;fill-opacity:1"
   d="M 460.9,136.55 H 358.5 c -9.5,0 -17.1,7.6 -17.1,17.1 v 307.2 c 0,9.5 7.7,17.1 17.1,17.1 h 102.4 c 9.5,0 17.1,-7.7 17.1,-17.1 v -307.2 c 0,-9.5 -7.7,-17.1 -17.1,-17.1 z"
   data-original="#000000"
   class="active-path"
   data-old_color="#000000"
   fill="#000000"
   id="path14" />
	</g>
</g> <link
   rel="stylesheet"
   id="dark-mode"
   type="text/css" /></svg>
