<?xml version="1.0" encoding="UTF-8" standalone="no"?>
<svg
   xmlns:dc="http://purl.org/dc/elements/1.1/"
   xmlns:cc="http://creativecommons.org/ns#"
   xmlns:rdf="http://www.w3.org/1999/02/22-rdf-syntax-ns#"
   xmlns:svg="http://www.w3.org/2000/svg"
   xmlns="http://www.w3.org/2000/svg"
   xmlns:sodipodi="http://sodipodi.sourceforge.net/DTD/sodipodi-0.dtd"
   xmlns:inkscape="http://www.inkscape.org/namespaces/inkscape"
   inkscape:version="1.0 (4035a4fb49, 2020-05-01)"
   sodipodi:docname="reddit.svg"
   id="svg14"
   version="1.1"
   class=""
   width="512px"
   viewBox="0 -28 512 512"
   height="512px">
  <metadata
     id="metadata20">
    <rdf:RDF>
      <cc:Work
         rdf:about="">
        <dc:format>image/svg+xml</dc:format>
        <dc:type
           rdf:resource="http://purl.org/dc/dcmitype/StillImage" />
      </cc:Work>
    </rdf:RDF>
  </metadata>
  <defs
     id="defs18" />
  <sodipodi:namedview
     inkscape:current-layer="svg14"
     inkscape:window-maximized="0"
     inkscape:window-y="42"
     inkscape:window-x="8"
     inkscape:cy="299.71302"
     inkscape:cx="225.32326"
     inkscape:zoom="0.80240047"
     showgrid="false"
     id="namedview16"
     inkscape:window-height="716"
     inkscape:window-width="1348"
     inkscape:pageshadow="2"
     inkscape:pageopacity="0"
     guidetolerance="10"
     gridtolerance="10"
     objecttolerance="10"
     borderopacity="1"
     bordercolor="#666666"
     pagecolor="#ffffff" />
  <path
     transform="translate(0,-28)"
     d="M 415.94922 28 C 400.19531 28 386.74609 37.144531 380.21484 50.359375 L 287.08203 30.535156 C 284.46875 29.996094 281.78125 30.460938 279.55078 31.917969 C 277.32422 33.378906 275.78516 35.605469 275.25 38.21875 C 275.25 38.21875 247.27734 171.46484 247.27734 172.23438 C 187.41797 173.76953 133.62891 191.67578 94.746094 219.72266 C 84.679688 210.03906 71.078125 204.12109 56.019531 204.12109 C 25.050781 204.12109 0 229.24612 0 260.14062 C 0 282.88281 13.601562 302.48047 33.117188 311.23828 C 32.273438 316.77344 31.8125 322.45703 31.8125 328.22266 C 31.8125 414.4375 132.16797 484.28906 255.96094 484.28906 C 379.75391 484.28906 480.10936 414.4375 480.10938 328.22266 C 480.10938 322.53516 479.64844 316.92578 478.80469 311.39453 C 498.24609 302.63281 512 283.03908 512 260.14062 C 512 229.17188 486.94922 204.12109 455.98047 204.12109 C 440.84375 204.12109 427.16406 210.11328 417.10156 219.875 C 378.83203 192.21094 326.04297 174.38281 267.25781 172.30859 L 292.76953 52.203125 L 376.14453 69.957031 C 377.14453 91.164062 394.50781 108.07031 415.94922 108.07031 C 438.07812 108.07031 455.98438 90.164062 455.98438 68.035156 C 455.98438 45.90625 438.07812 28 415.94922 28 z M 343.94531 260.13672 C 366 260.13672 383.98047 278.1172 383.98047 300.17188 C 383.98047 322.22656 366 340.20703 343.94531 340.20703 C 321.89062 340.20703 303.91016 322.22656 303.91016 300.17188 C 303.91016 278.11719 321.89062 260.13672 343.94531 260.13672 z M 167.82422 260.14062 C 189.87891 260.14062 207.85938 278.12109 207.85938 300.17578 C 207.85938 322.22656 189.87891 340.21094 167.82422 340.21094 C 145.76953 340.20694 127.78906 322.22656 127.78906 300.17578 C 127.78906 278.12109 145.76953 260.14062 167.82422 260.14062 z M 168.24609 388.17773 C 170.89746 388.17773 173.54883 389.19531 175.58594 391.23047 C 192.79687 408.44531 229.60547 414.59375 255.96094 414.59375 C 282.24219 414.59375 319.125 408.44531 336.33984 391.23047 C 340.41016 387.16016 346.94143 387.16016 351.01562 391.23047 C 355.01173 395.30469 355.01174 401.83594 351.01562 405.91016 C 323.66017 433.1875 271.32812 435.33984 255.96094 435.33984 C 240.59375 435.33984 188.1875 433.1875 160.90625 405.91016 C 156.83594 401.83594 156.83594 395.30469 160.90625 391.23047 C 162.94336 389.19531 165.59473 388.17773 168.24609 388.17773 z "
     style="fill:#ffb86c;fill-rule:evenodd"
     id="path2" />
  <link
     rel="stylesheet"
     id="dark-mode"
     type="text/css" />
</svg>
